<svg id="Component_3_1" data-name="Component 3 – 1" xmlns="http://www.w3.org/2000/svg" width="50.818" height="50.818" viewBox="0 0 50.818 50.818">
  <path id="Path_107618" data-name="Path 107618" d="M51.184,22.256H40.251a14.893,14.893,0,0,0-28.726,3.511H21.977v3.511H7.988c-.053-.574-.08-1.161-.08-1.749a18.4,18.4,0,0,1,34.586-8.77h7.675A25.415,25.415,0,0,0,1.447,32.775H12.38a14.893,14.893,0,0,0,28.726-3.511H30.654V25.753H44.63c.053.574.08,1.161.08,1.749a18.4,18.4,0,0,1-34.586,8.77H2.448A25.426,25.426,0,0,0,51.184,22.256Z" transform="translate(-0.9 -2.1)" fill="#fff"/>
  <g id="Group_43450" data-name="Group 43450" transform="translate(3.511 3.511)">
    <g id="Group_43449" data-name="Group 43449">
      <path id="Path_107619" data-name="Path 107619" d="M49.1,28.4A21.91,21.91,0,0,0,27.2,50.3c0,.587.027,1.175.067,1.749h3.511c-.053-.574-.08-1.161-.08-1.749a18.4,18.4,0,0,1,34.586-8.77h3.911A21.935,21.935,0,0,0,49.1,28.4Z" transform="translate(-27.2 -28.4)" fill="#f16522"/>
      <path id="Path_107620" data-name="Path 107620" d="M79.2,179.4c.053.574.08,1.161.08,1.749a18.4,18.4,0,0,1-34.586,8.77H40.8a21.912,21.912,0,0,0,41.994-8.757c0-.587-.027-1.175-.067-1.749H79.2Z" transform="translate(-38.985 -159.244)" fill="#f16522"/>
    </g>
  </g>
  <rect id="Rectangle_6599" data-name="Rectangle 6599" width="4.338" height="21.691" transform="translate(23.24 14.563)" fill="#8bc53f"/>
</svg>
